# xmcd
#
# Track frame offsets: 
#        150
#        13676
#        25987
#        38000
#        51163
#        63737
#        75551
#        89155
#        101340
#        116695
#        129695
#        142172
#        154020
#        167546
#        179365
#        193965
#        207184
#        221104
#        229653
#        242210
#        252111
#        263101
#        274647
#        285885
#        297660
#        307889
#        318570
#
# Disc length: 4407 seconds
#
# Revision: 0
# Processed by: cddbd v1.5.2PL0 Copyright (c) Steve Scherf et al.
# Submitted via: ExactAudioCopy v1.3
#
DISCID=9311351b
DTITLE=Various Artist - New Orleans Rhythm and Blues Volume 2 1947-1953
DYEAR=2011
DGENRE=R&B
TTITLE0=Roy Brown - Good Rockin' Tonight
TTITLE1=The Johnson Brothers Combo - Mellow Woman Blues
TTITLE2=Larry Darnell - For You My Love
TTITLE3=Chubby Newsome - New Orleans Lover Man
TTITLE4=George Miller’s Mid-Driffs - Boogie's The Thing
TTITLE5=Alma Mondy - Still My Angel Child
TTITLE6=Brother Montgomery - El Ritmo
TTITLE7=Paul Gayten - Hey Little Girl
TTITLE8=Joe Lutcher - Mardi Gras
TTITLE9=Professor Longhair - Mardi Gras In New Orleans
TTITLE10=Dave Bartholomew - Carnival Day
TTITLE11=Fats Domino - The Fat Man
TTITLE12=Annie Laurie with Paul Gayten - I'll Never Be Free
TTITLE13=Roy Brown - Whose Hat Is That
TTITLE14=Larry Darnell - Lost My Baby
TTITLE15=Professor Longhair - Hey Now Baby
TTITLE16=Dave Bartholomew - Country Boy
TTITLE17=Jewel King - 3x7=21
TTITLE18=Paul Gayten - Bear Hug
TTITLE19=Archibald - Stack-A-Lee
TTITLE20=Smiley Lewis - Growing Old
TTITLE21=Smilin' Joe - Dinah
TTITLE22=Professor Longhair - Bald Head
TTITLE23=Dave Bartholomew - Ah Cubanas
TTITLE24=Smiley Lewis - Tee Nah Nah
TTITLE25=Joe Turner - Love My Baby
TTITLE26=Fats Domino - She's My Baby
EXTD=
EXTT0=
EXTT1=
EXTT2=
EXTT3=
EXTT4=
EXTT5=
EXTT6=
EXTT7=
EXTT8=
EXTT9=
EXTT10=
EXTT11=
EXTT12=
EXTT13=
EXTT14=
EXTT15=
EXTT16=
EXTT17=
EXTT18=
EXTT19=
EXTT20=
EXTT21=
EXTT22=
EXTT23=
EXTT24=
EXTT25=
EXTT26=
PLAYORDER=
